<?xml version="1.0" encoding="UTF-8"?>
<svg width="752pt" height="752pt" version="1.1" viewBox="0 0 752 752" xmlns="http://www.w3.org/2000/svg">
 <g>
  <path d="m579.22 353.97c0.15234-6.4766-0.91406-12.895-2.9922-18.824-2.1367-6.1953-5.375-11.848-9.2422-16.84-7.7852-10-18.102-17.305-29.121-22.051-11.062-4.7383-22.848-6.957-34.426-7.2734-5.7969-0.15625-11.562 0.14062-17.234 0.84766-1.4258 0.16406-2.8359 0.38281-4.2383 0.58984l-2.1016 0.35547-1.8008 0.28906c-2.7109 0.41797-5.5234 0.89453-8.2188 1.4102-3.0938 0.59375-6.1602 1.2539-9.2148 1.9492 2.1328-2.2969 4.2383-4.625 6.2969-7.0078 1.7852-2.0742 3.6094-4.2656 5.3281-6.4062l1.1523-1.4141 1.3594-1.6445c0.88281-1.1172 1.7773-2.2305 2.6289-3.3828 3.4492-4.5586 6.582-9.4062 9.3477-14.504 5.5078-10.188 9.4844-21.504 10.91-33.453 1.3984-11.914 0.23438-24.508-4.5391-36.242-2.3906-5.8477-5.6602-11.477-9.957-16.426-4.0977-4.7617-9.1289-8.8945-14.809-12-2.8555-1.8398-5.3438-2.9414-7.875-3.957-2.5898-1.0156-5.1484-1.832-7.7148-2.5117-5.1289-1.3594-10.285-2.2031-15.492-2.6133-10.395-0.80469-21.031 0.11719-31.238 3.1094-10.195 2.9766-19.883 7.9883-28.242 14.531-0.19141 0.15234-0.37891 0.3125-0.56641 0.46094-0.19141-0.15234-0.37891-0.3125-0.56641-0.46094-8.3555-6.543-18.043-11.551-28.242-14.531-10.211-2.9883-20.844-3.9102-31.234-3.1094-5.207 0.41016-10.367 1.2539-15.492 2.6133-2.5664 0.68359-5.125 1.4961-7.7188 2.5117-2.5273 1.0156-5.0117 2.1211-7.8711 3.957-5.6875 3.1055-10.715 7.2383-14.809 12-4.2969 4.9492-7.5703 10.582-9.9609 16.426-4.7695 11.734-5.9336 24.332-4.5352 36.242 1.4297 11.949 5.4023 23.266 10.91 33.453 2.7656 5.0977 5.9062 9.9453 9.3477 14.504 0.84766 1.1523 1.7461 2.2617 2.625 3.3828l1.3594 1.6445 1.1562 1.4141c1.7188 2.1406 3.5352 4.3359 5.3281 6.4062 2.0625 2.3828 4.168 4.7109 6.293 7.0078-3.0508-0.69531-6.1211-1.3555-9.2109-1.9492-2.6953-0.51562-5.5-0.99219-8.2188-1.4102l-1.7969-0.28906-2.1055-0.35547c-1.4141-0.20703-2.8242-0.42188-4.2383-0.58984-5.6758-0.70312-11.438-1.0039-17.234-0.84766-11.582 0.31641-23.363 2.5352-34.43 7.2734-11.02 4.7461-21.34 12.051-29.117 22.051-3.8672 4.9961-7.1055 10.641-9.2461 16.84-2.0742 5.9297-3.1406 12.348-2.9883 18.824-0.16406 3.3945 0.125 6.1016 0.51172 8.7969 0.41016 2.7539 0.98828 5.3711 1.6758 7.9375 1.3906 5.1172 3.2383 10.008 5.4844 14.723 4.5039 9.4023 10.613 18.148 18.309 25.5 7.6758 7.3398 16.863 13.223 26.707 17.191 0.22656 0.09375 0.45703 0.17187 0.68359 0.25781-0.035156 0.24219-0.082031 0.48438-0.11328 0.72266-1.4844 10.508-0.98047 21.402 1.5352 31.723 2.5195 10.332 7.0391 20.004 12.926 28.602 2.9609 4.3047 6.2695 8.3516 10.008 12.109 1.8789 1.8828 3.8594 3.6914 6.0352 5.4258 2.1445 1.6797 4.3438 3.2852 7.3672 4.8398 5.5312 3.3711 11.625 5.6562 17.797 6.8281 6.4375 1.2422 12.949 1.2617 19.207 0.40625 12.555-1.7383 24.035-7.0234 33.656-14.191 9.6328-7.207 17.449-16.309 23.512-26.176 3.0352-4.9414 5.6562-10.082 7.8867-15.348 0.56641-1.3086 1.0859-2.6406 1.6133-3.9648l0.10156-0.27344c-0.28906 1.8125-0.59375 3.6328-0.91016 5.4727-2.3398 13.438-5.3984 27.414-9.0664 41.52-3.668 14.09-7.9414 28.324-12.734 42.016-4.7773 13.664-10.117 26.816-15.508 37.793l16.586 10.68c7.543-19.48 13.09-37.754 17.441-54.723 4.3359-16.984 7.4805-32.785 9.7852-47.582 2.2812-14.781 3.7031-28.566 4.2695-41.215 0.078125-1.7383 0.13281-3.4531 0.17969-5.1484 0.89062 2.5703 1.875 5.2227 2.8633 7.7656l0.64844 1.7031 0.74609 2c0.52734 1.3242 1.043 2.6562 1.6133 3.9648 2.2305 5.2695 4.8555 10.406 7.8867 15.348 6.0664 9.8672 13.879 18.969 23.512 26.176 9.6211 7.1719 21.105 12.453 33.652 14.191 6.2578 0.85156 12.773 0.83594 19.207-0.40625 6.1758-1.168 12.266-3.4609 17.801-6.8281 3.0195-1.5547 5.2227-3.1602 7.3633-4.8398 2.1836-1.7305 4.1602-3.5391 6.0352-5.4258 3.7461-3.7617 7.0508-7.8047 10.008-12.109 5.8945-8.5938 10.41-18.27 12.926-28.602 2.5234-10.32 3.0195-21.215 1.5391-31.723-0.035156-0.23828-0.082031-0.48047-0.11328-0.72266 0.22656-0.089843 0.45703-0.16797 0.6875-0.25781 9.8359-3.9648 19.023-9.8477 26.703-17.191 7.6914-7.3477 13.805-16.098 18.305-25.5 2.2461-4.7148 4.0977-9.6055 5.4844-14.723 0.69531-2.5625 1.2695-5.1836 1.6797-7.9375 0.38281-2.7031 0.66797-5.4062 0.50391-8.8047zm-20.738-0.39062-0.007813 0.11719 0.003906 1.0156c0.007813 1.0273-0.1875 2.8359-0.53516 4.5703-0.35156 1.7734-0.84375 3.6211-1.4297 5.4609-1.1797 3.6914-2.7461 7.3555-4.6094 10.84-3.7188 6.9922-8.6523 13.258-14.41 18.402-5.3633 4.8203-11.535 8.6055-18.242 11.266-0.48047 0.19531-0.94922 0.38672-1.4336 0.57031-3.625 1.3477-7.4062 2.3633-11.273 3.1055-3.9102 0.76172-7.7656 1.2031-11.957 1.4062 1.9258 3.7305 3.4688 7.293 4.7617 11.055 1.2969 3.7227 2.3047 7.5 2.9492 11.316 0.085937 0.50781 0.15234 1.0156 0.23047 1.5234 1.043 7.1328 0.85156 14.375-0.64062 21.434-1.5742 7.5508-4.5312 14.957-8.7266 21.676-2.0859 3.3516-4.4805 6.5469-7.0859 9.4102-1.3008 1.4336-2.6562 2.7773-4.0195 3.9648-1.3242 1.168-2.793 2.2383-3.6875 2.7539l-0.88281 0.50391-0.097656 0.066406c-6.5742 4.6289-15.258 6.6328-24.121 5.9102-8.8867-0.70703-17.852-4.0859-25.77-9.3438-7.9531-5.2305-14.957-12.277-20.68-20.402-2.8633-4.0625-5.4336-8.3867-7.6914-12.906-0.57031-1.1289-1.1055-2.2773-1.6445-3.418l-0.77344-1.7422-0.49609-1.0977-0.4375-0.91016c-1.1367-2.3867-2.1875-4.6953-3.2383-7.1211-3.5664-8.3125-6.707-16.871-9.5703-25.562-2.043-6.1953-3.9531-12.457-5.7422-18.773-1.7891 6.3164-3.6992 12.578-5.7461 18.773-2.8672 8.6992-6.0039 17.25-9.5742 25.562-1.0469 2.4258-2.1016 4.7344-3.2383 7.1211l-0.43359 0.91016-0.49609 1.0977-0.77734 1.7422c-0.53906 1.1445-1.0703 2.2891-1.6445 3.418-2.2539 4.5195-4.8281 8.8477-7.6875 12.906-5.7148 8.1211-12.719 15.168-20.684 20.402-7.9141 5.2578-16.883 8.6367-25.766 9.3438-8.8633 0.72656-17.547-1.2812-24.125-5.9102l-0.09375-0.066406-0.88672-0.50391c-0.89062-0.51562-2.3633-1.582-3.6836-2.7539-1.3633-1.1875-2.7148-2.5391-4.0195-3.9648-2.6055-2.8633-4.9961-6.0586-7.0859-9.4102-4.1992-6.7188-7.1602-14.125-8.7305-21.676-1.4883-7.0586-1.6797-14.301-0.63672-21.434 0.074219-0.51172 0.13672-1.0156 0.22656-1.5234 0.64844-3.8164 1.6523-7.5977 2.9492-11.316 1.2969-3.7656 2.8398-7.3242 4.7617-11.055-4.1914-0.20312-8.0508-0.64453-11.949-1.4062-3.875-0.73828-7.6523-1.7578-11.281-3.1055-0.48047-0.17969-0.95312-0.38281-1.4336-0.57031-6.6992-2.6602-12.871-6.4453-18.242-11.266-5.7617-5.1484-10.695-11.41-14.41-18.402-1.8633-3.4844-3.4336-7.1523-4.6094-10.84-0.58594-1.8398-1.0781-3.6875-1.4258-5.4609-0.35547-1.7305-0.54688-3.5391-0.53906-4.5703l0.007812-1.0156-0.007812-0.11719c-0.72266-8.0117 1.8828-16.531 6.9453-23.844 5.0547-7.3398 12.465-13.41 20.973-17.641 8.5078-4.2773 18.113-6.8203 28.004-7.707 4.9531-0.44922 9.9766-0.51562 15.023-0.20703 1.2656 0.066406 2.5234 0.17969 3.7852 0.28125l1.8945 0.19922 1.1992 0.12109 1.0078 0.078125c2.6289 0.21094 5.1562 0.45312 7.7852 0.75781 8.9844 1.0703 17.961 2.625 26.918 4.4883 6.3906 1.3281 12.77 2.8086 19.133 4.4141-4.5742-4.7109-9.043-9.4922-13.387-14.359-6.0938-6.8281-11.938-13.828-17.348-21.07-1.5742-2.125-3.0469-4.1875-4.5469-6.3633l-0.57031-0.83203-0.70703-0.98047-1.1172-1.5391c-0.71875-1.043-1.4492-2.0781-2.1367-3.1367-2.7891-4.2148-5.2461-8.6016-7.332-13.113-4.1758-9.0117-6.7734-18.598-7.3242-28.113-0.59375-9.4844 0.96094-18.938 4.793-26.988 3.8047-8.0352 9.8828-14.559 17.18-17.938l0.10547-0.050782 0.875-0.51562c0.88672-0.52344 2.5547-1.2539 4.2305-1.8164 1.7109-0.58594 3.5586-1.0859 5.4414-1.5 3.7812-0.82031 7.7422-1.2969 11.695-1.4297 7.9141-0.27734 15.805 0.86719 23.141 3.2773 6.8594 2.2383 13.223 5.6914 18.883 10.164 0.39844 0.31641 0.80859 0.62891 1.207 0.95703 2.9805 2.4688 5.7539 5.2305 8.3242 8.2148 2.6172 3 4.9219 6.125 7.1914 9.6523 2.2734-3.5352 4.582-6.6523 7.1914-9.6523 2.5742-2.9805 5.3477-5.7461 8.3281-8.2148 0.39062-0.32812 0.80469-0.64062 1.207-0.95703 5.6562-4.4688 12.02-7.9258 18.879-10.164 7.332-2.4141 15.227-3.5547 23.141-3.2773 3.9492 0.13281 7.9102 0.60547 11.695 1.4297 1.8828 0.41016 3.7305 0.91406 5.4414 1.5 1.6719 0.5625 3.3359 1.2969 4.2305 1.8164l0.875 0.51562 0.10547 0.050782c7.3008 3.3828 13.375 9.9023 17.184 17.938 3.8242 8.0508 5.3828 17.504 4.7891 26.988-0.54688 9.5078-3.1523 19.098-7.3242 28.113-2.0859 4.5156-4.5469 8.8984-7.3281 13.113-0.6875 1.0586-1.418 2.0938-2.1367 3.1367l-1.1211 1.5391-0.70703 0.98047-0.56641 0.83203c-1.5 2.1719-2.9727 4.2383-4.5469 6.3633-5.4141 7.2461-11.25 14.242-17.348 21.07-4.3438 4.8672-8.8125 9.6523-13.383 14.359 6.3633-1.6055 12.738-3.082 19.129-4.4141 8.9609-1.8633 17.945-3.4219 26.922-4.4883 2.625-0.30859 5.1523-0.54688 7.7852-0.75781l1.0039-0.078125 1.1992-0.12109 1.8945-0.19922c1.2656-0.10156 2.5312-0.21875 3.7852-0.28125 5.043-0.30859 10.074-0.24219 15.023 0.20703 9.8945 0.88672 19.5 3.4336 28.008 7.707 8.5078 4.2305 15.922 10.301 20.973 17.641 5.043 7.3125 7.6523 15.832 6.9258 23.844z"/>
  <path d="m410.98 322.33-27.277 11.195-6.4883-117.74-6.5 117.94-27.637-10.707 23.09 18.586-98.887 64.594 105.38-53.332 4.5 29.199 4.5898-29.211 105.4 53.348-99.051-64.703z"/>
 </g>
</svg>
